<svg width="340" height="340" viewBox="0 0 340 340" fill="none" xmlns="http://www.w3.org/2000/svg">
<path d="M33.8609 256.393L150.38 55.1326C156.82 44.0094 160.04 38.4478 164.241 36.5799C167.905 34.9506 172.088 34.9506 175.752 36.5799C179.953 38.4478 183.173 44.0094 189.613 55.1325L306.132 256.393C312.595 267.556 315.826 273.138 315.349 277.719C314.932 281.715 312.839 285.345 309.589 287.708C305.864 290.417 299.415 290.417 286.516 290.417H53.4773C40.5782 290.417 34.1286 290.417 30.4034 287.708C27.1541 285.345 25.0607 281.715 24.6442 277.719C24.1666 273.138 27.398 267.556 33.8609 256.393Z" stroke="black" stroke-width="2" stroke-linecap="round" stroke-linejoin="round"/>
</svg>
