<svg width="340" height="340" viewBox="0 0 340 340" fill="none" xmlns="http://www.w3.org/2000/svg">
<path d="M159.837 48.9217C163.102 42.3067 164.735 38.9992 166.951 37.9425C168.88 37.0231 171.12 37.0231 173.048 37.9425C175.265 38.9992 176.897 42.3067 180.163 48.9217L211.141 111.68C212.104 113.632 212.586 114.609 213.291 115.367C213.915 116.038 214.662 116.582 215.493 116.969C216.432 117.405 217.509 117.562 219.664 117.877L288.957 128.006C296.254 129.072 299.902 129.605 301.591 131.388C303.06 132.938 303.751 135.069 303.471 137.187C303.15 139.62 300.508 142.193 295.226 147.338L245.104 196.157C243.541 197.679 242.76 198.44 242.256 199.345C241.809 200.147 241.523 201.028 241.413 201.939C241.288 202.967 241.472 204.042 241.841 206.192L253.667 275.146C254.915 282.419 255.538 286.056 254.366 288.213C253.347 290.091 251.534 291.408 249.433 291.797C247.019 292.245 243.753 290.528 237.222 287.093L175.275 254.516C173.345 253.501 172.38 252.993 171.363 252.794C170.463 252.617 169.537 252.617 168.637 252.794C167.62 252.993 166.655 253.501 164.725 254.516L102.778 287.093C96.2468 290.528 92.9813 292.245 90.5668 291.797C88.466 291.408 86.6532 290.091 85.6335 288.213C84.4613 286.056 85.085 282.419 86.3324 275.146L98.1589 206.192C98.5276 204.042 98.7119 202.967 98.5872 201.939C98.4768 201.028 98.1904 200.147 97.7441 199.345C97.24 198.44 96.4588 197.679 94.8963 196.157L44.7743 147.338C39.4916 142.193 36.8502 139.62 36.5288 137.187C36.2491 135.069 36.94 132.938 38.4091 131.388C40.0975 129.605 43.7459 129.072 51.0428 128.006L120.336 117.877C122.491 117.562 123.568 117.405 124.507 116.969C125.337 116.582 126.085 116.038 126.709 115.367C127.413 114.609 127.895 113.632 128.859 111.68L159.837 48.9217Z" stroke="black" stroke-width="2" stroke-linecap="round" stroke-linejoin="round"/>
</svg>
