<svg width="340" height="340" viewBox="0 0 340 340" fill="none" xmlns="http://www.w3.org/2000/svg">
<path d="M42.5 110.5C42.5 86.6978 42.5 74.7967 47.1322 65.7054C51.2068 57.7085 57.7085 51.2068 65.7054 47.1322C74.7967 42.5 86.6978 42.5 110.5 42.5H229.5C253.302 42.5 265.203 42.5 274.295 47.1322C282.291 51.2068 288.793 57.7085 292.868 65.7054C297.5 74.7967 297.5 86.6978 297.5 110.5V229.5C297.5 253.302 297.5 265.203 292.868 274.295C288.793 282.291 282.291 288.793 274.295 292.868C265.203 297.5 253.302 297.5 229.5 297.5H110.5C86.6978 297.5 74.7967 297.5 65.7054 292.868C57.7085 288.793 51.2068 282.291 47.1322 274.295C42.5 265.203 42.5 253.302 42.5 229.5V110.5Z" stroke="black" stroke-width="2" stroke-linecap="round" stroke-linejoin="round"/>
</svg>
